<?xml version="1.0" standalone="no"?><!DOCTYPE svg PUBLIC "-//W3C//DTD SVG 1.1//EN" "http://www.w3.org/Graphics/SVG/1.1/DTD/svg11.dtd"><svg t="1708270728158" class="icon" viewBox="0 0 1024 1024" version="1.1" xmlns="http://www.w3.org/2000/svg" p-id="1490" xmlns:xlink="http://www.w3.org/1999/xlink" width="200" height="200"><path d="M573.994667 665.386667a8.021333 8.021333 0 0 0-11.306667 0l-116.181333 116.224c-53.802667 53.76-144.64 59.477333-203.989334 0-59.52-59.52-53.802667-150.186667 0-203.989334l116.181334-116.224a8.021333 8.021333 0 0 0 0-11.306666l-39.808-39.808a8.021333 8.021333 0 0 0-11.306667 0L191.402667 526.506667a216.192 216.192 0 0 0 0 306.005333 216.32 216.32 0 0 0 306.005333 0l116.181333-116.224a8.021333 8.021333 0 0 0 0-11.306667l-39.594666-39.594666z m258.602666-474.026667a216.192 216.192 0 0 0-306.005333 0L410.282667 307.626667a8.021333 8.021333 0 0 0 0 11.306666l39.68 39.68a8.021333 8.021333 0 0 0 11.349333 0l116.181333-116.181333c53.802667-53.76 144.64-59.477333 203.989334 0 59.52 59.52 53.802667 150.186667 0 204.032l-116.181334 116.181333a8.021333 8.021333 0 0 0 0 11.306667l39.808 39.808a8.021333 8.021333 0 0 0 11.306667 0l116.181333-116.224a216.490667 216.490667 0 0 0 0-306.090667zM610.133333 372.309333a8.021333 8.021333 0 0 0-11.306666 0l-226.474667 226.432a8.021333 8.021333 0 0 0 0 11.306667l39.594667 39.594667a8.021333 8.021333 0 0 0 11.306666 0l226.389334-226.389334a8.021333 8.021333 0 0 0 0-11.306666l-39.509334-39.594667z" fill="#000000" p-id="1491"></path></svg>