<?xml version="1.0" standalone="no"?><!DOCTYPE svg PUBLIC "-//W3C//DTD SVG 1.1//EN" "http://www.w3.org/Graphics/SVG/1.1/DTD/svg11.dtd"><svg t="1708352771184" class="icon" viewBox="0 0 1024 1024" version="1.1" xmlns="http://www.w3.org/2000/svg" p-id="12789" xmlns:xlink="http://www.w3.org/1999/xlink" width="200" height="200"><path d="M469.333 320v218.027l200.96 119.04L704 602.453l-170.667-101.12V320m0-213.333c-150.613 0-281.173 81.92-351.146 203.52l-96.854-96.854v277.334h277.334L245.333 373.333c51.627-107.52 160-181.333 288-181.333a320 320 0 0 1 320 320 320 320 0 0 1-320 320c-139.52 0-257.28-89.173-301.226-213.333h-89.6c46.933 171.946 203.52 298.666 390.826 298.666C756.907 917.333 938.667 736 938.667 512a405.333 405.333 0 0 0-405.334-405.333z" p-id="12790"></path></svg>